# Blender 4.3.2
# www.blender.org
mtllib PlayerFeet.mtl
o Sphere
v 0.000000 -0.706256 -0.247487
v 0.000000 -0.784707 -0.338074
v 0.000000 -0.875293 -0.338074
v 0.000000 -0.917500 -0.303109
v 0.045293 -0.660963 -0.078450
v 0.087500 -0.678446 -0.151554
v 0.123744 -0.706256 -0.214330
v 0.151554 -0.742500 -0.262500
v 0.169037 -0.784707 -0.292781
v 0.175000 -0.830000 -0.303109
v 0.169037 -0.875293 -0.292781
v 0.151554 -0.917500 -0.262500
v 0.123744 -0.953744 -0.214330
v 0.087500 -0.981554 -0.151554
v 0.045293 -0.999037 -0.078450
v 0.078450 -0.660963 -0.045293
v 0.151554 -0.678446 -0.087500
v 0.214330 -0.706256 -0.123744
v 0.262500 -0.742500 -0.151554
v 0.292781 -0.784707 -0.169037
v 0.303109 -0.830000 -0.175000
v 0.292781 -0.875293 -0.169037
v 0.262500 -0.917500 -0.151554
v 0.214330 -0.953744 -0.123744
v 0.151554 -0.981554 -0.087500
v 0.078450 -0.999037 -0.045293
v 0.090587 -0.660963 0.000000
v 0.175000 -0.678446 0.000000
v 0.247487 -0.706256 0.000000
v 0.303109 -0.742500 0.000000
v 0.338074 -0.784707 0.000000
v 0.350000 -0.830000 0.000000
v 0.338074 -0.875293 0.000000
v 0.303109 -0.917500 0.000000
v 0.247487 -0.953744 0.000000
v 0.175000 -0.981554 0.000000
v 0.090587 -0.999037 0.000000
v 0.078450 -0.660963 0.045293
v 0.151554 -0.678446 0.087500
v 0.214330 -0.706256 0.123744
v 0.262500 -0.742500 0.151554
v 0.292781 -0.784707 0.169037
v 0.303109 -0.830000 0.175000
v 0.292781 -0.875293 0.169037
v 0.262500 -0.917500 0.151554
v 0.214330 -0.953744 0.123744
v 0.151554 -0.981554 0.087500
v 0.078450 -0.999037 0.045293
v 0.045293 -0.660963 0.078450
v 0.087500 -0.678446 0.151554
v 0.123744 -0.706256 0.214330
v 0.151554 -0.742500 0.262500
v 0.169037 -0.784707 0.292781
v 0.175000 -0.830000 0.303109
v 0.169037 -0.875293 0.292781
v 0.151554 -0.917500 0.262500
v 0.123744 -0.953744 0.214330
v 0.087500 -0.981554 0.151554
v 0.045293 -0.999037 0.078450
v 0.000000 -0.660963 0.090587
v 0.000000 -0.678446 0.175000
v -0.000000 -0.706256 0.247487
v -0.000000 -0.742500 0.303109
v -0.000000 -0.784707 0.338074
v 0.000000 -0.830000 0.350000
v -0.000000 -0.875293 0.338074
v -0.000000 -0.917500 0.303109
v -0.000000 -0.953744 0.247487
v 0.000000 -0.981554 0.175000
v 0.000000 -0.999037 0.090587
v -0.045293 -0.660963 0.078450
v -0.087500 -0.678446 0.151554
v -0.123744 -0.706256 0.214330
v -0.151554 -0.742500 0.262500
v -0.169037 -0.784707 0.292781
v -0.175000 -0.830000 0.303109
v -0.169037 -0.875293 0.292781
v -0.151554 -0.917500 0.262500
v -0.123744 -0.953744 0.214330
v -0.087500 -0.981554 0.151554
v -0.045293 -0.999037 0.078450
v -0.078450 -0.660963 0.045293
v -0.151554 -0.678446 0.087500
v -0.214330 -0.706256 0.123744
v -0.262500 -0.742500 0.151554
v -0.292781 -0.784707 0.169037
v -0.303109 -0.830000 0.175000
v -0.292781 -0.875293 0.169037
v -0.262500 -0.917500 0.151554
v -0.214330 -0.953744 0.123744
v -0.151554 -0.981554 0.087500
v -0.078450 -0.999037 0.045293
v 0.000000 -0.655000 0.000000
v -0.090587 -0.660963 0.000000
v -0.175000 -0.678446 0.000000
v -0.247487 -0.706256 -0.000000
v -0.303109 -0.742500 -0.000000
v -0.338074 -0.784707 -0.000000
v -0.350000 -0.830000 0.000000
v -0.338074 -0.875293 -0.000000
v -0.303109 -0.917500 -0.000000
v -0.247487 -0.953744 -0.000000
v -0.175000 -0.981554 0.000000
v -0.090587 -0.999037 0.000000
v -0.078450 -0.660963 -0.045293
v -0.151554 -0.678446 -0.087500
v -0.214330 -0.706256 -0.123744
v -0.262500 -0.742500 -0.151554
v -0.292781 -0.784707 -0.169037
v -0.303109 -0.830000 -0.175000
v -0.292781 -0.875293 -0.169037
v -0.262500 -0.917500 -0.151554
v -0.214330 -0.953744 -0.123744
v -0.151554 -0.981554 -0.087500
v -0.078450 -0.999037 -0.045293
v -0.045293 -0.660963 -0.078450
v -0.087500 -0.678446 -0.151554
v -0.123744 -0.706256 -0.214330
v -0.151554 -0.742500 -0.262500
v -0.169037 -0.784707 -0.292781
v -0.175000 -0.830000 -0.303109
v -0.169037 -0.875293 -0.292781
v -0.151554 -0.917500 -0.262500
v -0.123744 -0.953744 -0.214330
v -0.087500 -0.981554 -0.151554
v -0.045293 -0.999037 -0.078450
v 0.000000 -0.660963 -0.090587
v 0.000000 -0.678446 -0.175000
v 0.000000 -0.742500 -0.303109
v 0.000000 -0.830000 -0.350000
v 0.000000 -0.953744 -0.247487
v 0.000000 -0.981554 -0.175000
v 0.000000 -0.999037 -0.090587
v 0.000000 -1.005000 0.000000
vn 0.2508 -0.2465 -0.9361
vn 0.1447 0.8290 -0.5402
vn 0.0543 -0.9778 -0.2025
vn 0.0176 0.9977 -0.0657
vn 0.2021 -0.6248 -0.7542
vn 0.2021 0.6248 -0.7542
vn 0.0176 -0.9977 -0.0657
vn 0.0543 0.9778 -0.2025
vn 0.1447 -0.8290 -0.5402
vn 0.2508 0.2465 -0.9361
vn 0.0955 0.9294 -0.3566
vn 0.0955 -0.9294 -0.3566
vn 0.5521 0.6248 -0.5521
vn 0.0481 -0.9977 -0.0481
vn 0.1482 0.9778 -0.1482
vn 0.3954 -0.8290 -0.3954
vn 0.6853 0.2465 -0.6853
vn 0.2610 0.9294 -0.2610
vn 0.2610 -0.9294 -0.2610
vn 0.6853 -0.2465 -0.6853
vn 0.3954 0.8290 -0.3954
vn 0.1482 -0.9778 -0.1482
vn 0.0481 0.9977 -0.0481
vn 0.5521 -0.6248 -0.5521
vn 0.5402 0.8290 -0.1447
vn 0.2025 -0.9778 -0.0543
vn 0.0657 0.9977 -0.0176
vn 0.7542 -0.6248 -0.2021
vn 0.7542 0.6248 -0.2021
vn 0.0657 -0.9977 -0.0176
vn 0.2025 0.9778 -0.0543
vn 0.5402 -0.8290 -0.1447
vn 0.9361 0.2465 -0.2508
vn 0.3566 0.9294 -0.0955
vn 0.3566 -0.9294 -0.0955
vn 0.9361 -0.2465 -0.2508
vn 0.9361 0.2465 0.2508
vn 0.3566 0.9294 0.0955
vn 0.3566 -0.9294 0.0955
vn 0.9361 -0.2465 0.2508
vn 0.5402 0.8290 0.1447
vn 0.2025 -0.9778 0.0543
vn 0.0657 0.9977 0.0176
vn 0.7542 -0.6248 0.2021
vn 0.7542 0.6248 0.2021
vn 0.0657 -0.9977 0.0176
vn 0.2025 0.9778 0.0543
vn 0.5402 -0.8290 0.1447
vn 0.5521 0.6248 0.5521
vn 0.0481 -0.9977 0.0481
vn 0.1482 0.9778 0.1482
vn 0.3954 -0.8290 0.3954
vn 0.6853 0.2465 0.6853
vn 0.2610 0.9294 0.2610
vn 0.2610 -0.9294 0.2610
vn 0.6853 -0.2465 0.6853
vn 0.3954 0.8290 0.3954
vn 0.1482 -0.9778 0.1482
vn 0.0481 0.9977 0.0481
vn 0.5521 -0.6248 0.5521
vn 0.2508 -0.2465 0.9361
vn 0.1447 0.8290 0.5402
vn 0.0543 -0.9778 0.2025
vn 0.0176 0.9977 0.0657
vn 0.2021 -0.6248 0.7542
vn 0.2021 0.6248 0.7542
vn 0.0176 -0.9977 0.0657
vn 0.0543 0.9778 0.2025
vn 0.1447 -0.8290 0.5402
vn 0.2508 0.2465 0.9361
vn 0.0955 0.9294 0.3566
vn 0.0955 -0.9294 0.3566
vn -0.2508 0.2465 0.9361
vn -0.0955 0.9294 0.3566
vn -0.0955 -0.9294 0.3566
vn -0.2508 -0.2465 0.9361
vn -0.1447 0.8290 0.5402
vn -0.0543 -0.9778 0.2025
vn -0.0176 0.9977 0.0657
vn -0.2021 -0.6248 0.7542
vn -0.2021 0.6248 0.7542
vn -0.0176 -0.9977 0.0657
vn -0.0543 0.9778 0.2025
vn -0.1447 -0.8290 0.5402
vn -0.5521 -0.6248 0.5521
vn -0.5521 0.6248 0.5521
vn -0.0481 -0.9977 0.0481
vn -0.1482 0.9778 0.1482
vn -0.3954 -0.8290 0.3954
vn -0.6853 0.2465 0.6853
vn -0.2610 0.9294 0.2610
vn -0.2610 -0.9294 0.2610
vn -0.6853 -0.2465 0.6853
vn -0.3954 0.8290 0.3954
vn -0.1482 -0.9778 0.1482
vn -0.0481 0.9977 0.0481
vn -0.9361 -0.2465 0.2508
vn -0.5402 0.8290 0.1447
vn -0.2025 -0.9778 0.0543
vn -0.0657 0.9977 0.0176
vn -0.7542 -0.6248 0.2021
vn -0.7542 0.6248 0.2021
vn -0.0657 -0.9977 0.0176
vn -0.2025 0.9778 0.0543
vn -0.5402 -0.8290 0.1447
vn -0.9361 0.2465 0.2508
vn -0.3566 0.9294 0.0955
vn -0.3566 -0.9294 0.0955
vn -0.5402 -0.8290 -0.1447
vn -0.9361 0.2465 -0.2508
vn -0.3566 0.9294 -0.0955
vn -0.3566 -0.9294 -0.0955
vn -0.9361 -0.2465 -0.2508
vn -0.5402 0.8290 -0.1447
vn -0.2025 -0.9778 -0.0543
vn -0.0657 0.9977 -0.0176
vn -0.7542 -0.6248 -0.2021
vn -0.7542 0.6248 -0.2021
vn -0.0657 -0.9977 -0.0176
vn -0.2025 0.9778 -0.0543
vn -0.0481 0.9977 -0.0481
vn -0.5521 -0.6248 -0.5521
vn -0.5521 0.6248 -0.5521
vn -0.0481 -0.9977 -0.0481
vn -0.1482 0.9778 -0.1482
vn -0.3954 -0.8290 -0.3954
vn -0.6853 0.2465 -0.6853
vn -0.2610 0.9294 -0.2610
vn -0.2610 -0.9294 -0.2610
vn -0.6853 -0.2465 -0.6853
vn -0.3954 0.8290 -0.3954
vn -0.1482 -0.9778 -0.1482
vn -0.0955 -0.9294 -0.3566
vn -0.2508 -0.2465 -0.9361
vn -0.1447 0.8290 -0.5402
vn -0.0543 -0.9778 -0.2025
vn -0.0176 0.9977 -0.0657
vn -0.2021 -0.6248 -0.7542
vn -0.2021 0.6248 -0.7542
vn -0.0176 -0.9977 -0.0657
vn -0.0543 0.9778 -0.2025
vn -0.1447 -0.8290 -0.5402
vn -0.2508 0.2465 -0.9361
vn -0.0955 0.9294 -0.3566
vt 0.750000 0.416667
vt 0.750000 0.500000
vt 0.666667 0.500000
vt 0.666667 0.416667
vt 0.750000 0.666667
vt 0.750000 0.750000
vt 0.666667 0.750000
vt 0.666667 0.666667
vt 0.750000 0.083333
vt 0.750000 0.166667
vt 0.666667 0.166667
vt 0.666667 0.083333
vt 0.750000 0.916667
vt 0.708333 1.000000
vt 0.666667 0.916667
vt 0.750000 0.333333
vt 0.666667 0.333333
vt 0.750000 0.583333
vt 0.666667 0.583333
vt 0.708333 0.000000
vt 0.750000 0.833333
vt 0.666667 0.833333
vt 0.750000 0.250000
vt 0.666667 0.250000
vt 0.583333 0.666667
vt 0.583333 0.583333
vt 0.625000 0.000000
vt 0.583333 0.083333
vt 0.583333 0.916667
vt 0.583333 0.833333
vt 0.583333 0.333333
vt 0.583333 0.250000
vt 0.583333 0.500000
vt 0.583333 0.750000
vt 0.583333 0.166667
vt 0.583333 0.416667
vt 0.625000 1.000000
vt 0.500000 0.750000
vt 0.500000 0.666667
vt 0.500000 0.166667
vt 0.500000 0.083333
vt 0.541667 1.000000
vt 0.500000 0.916667
vt 0.500000 0.416667
vt 0.500000 0.333333
vt 0.500000 0.583333
vt 0.541667 0.000000
vt 0.500000 0.833333
vt 0.500000 0.250000
vt 0.500000 0.500000
vt 0.416667 0.583333
vt 0.416667 0.500000
vt 0.416667 0.833333
vt 0.416667 0.750000
vt 0.416667 0.250000
vt 0.416667 0.166667
vt 0.416667 0.416667
vt 0.416667 0.666667
vt 0.416667 0.083333
vt 0.458333 1.000000
vt 0.416667 0.916667
vt 0.416667 0.333333
vt 0.458333 0.000000
vt 0.333333 0.666667
vt 0.333333 0.583333
vt 0.375000 0.000000
vt 0.333333 0.083333
vt 0.333333 0.916667
vt 0.333333 0.833333
vt 0.333333 0.333333
vt 0.333333 0.250000
vt 0.333333 0.500000
vt 0.333333 0.750000
vt 0.333333 0.166667
vt 0.333333 0.416667
vt 0.375000 1.000000
vt 0.250000 0.500000
vt 0.250000 0.416667
vt 0.250000 0.750000
vt 0.250000 0.666667
vt 0.250000 0.166667
vt 0.250000 0.083333
vt 0.291667 1.000000
vt 0.250000 0.916667
vt 0.250000 0.333333
vt 0.250000 0.583333
vt 0.291667 0.000000
vt 0.250000 0.833333
vt 0.250000 0.250000
vt 0.166667 0.583333
vt 0.166667 0.500000
vt 0.166667 0.833333
vt 0.166667 0.750000
vt 0.166667 0.250000
vt 0.166667 0.166667
vt 0.166667 0.416667
vt 0.166667 0.666667
vt 0.166667 0.083333
vt 0.208333 1.000000
vt 0.166667 0.916667
vt 0.166667 0.333333
vt 0.208333 0.000000
vt 0.083333 0.416667
vt 0.083333 0.333333
vt 0.083333 0.666667
vt 0.083333 0.583333
vt 0.125000 0.000000
vt 0.083333 0.083333
vt 0.083333 0.916667
vt 0.083333 0.833333
vt 0.083333 0.250000
vt 0.083333 0.500000
vt 0.083333 0.750000
vt 0.083333 0.166667
vt 0.125000 1.000000
vt 0.000000 0.500000
vt 0.000000 0.416667
vt 0.000000 0.750000
vt 0.000000 0.666667
vt 0.000000 0.166667
vt 0.000000 0.083333
vt 0.041667 1.000000
vt 0.000000 0.916667
vt 0.000000 0.333333
vt 0.000000 0.583333
vt 0.041667 0.000000
vt 0.000000 0.833333
vt 0.000000 0.250000
vt 1.000000 0.250000
vt 1.000000 0.333333
vt 0.916667 0.333333
vt 0.916667 0.250000
vt 1.000000 0.500000
vt 1.000000 0.583333
vt 0.916667 0.583333
vt 0.916667 0.500000
vt 1.000000 0.750000
vt 1.000000 0.833333
vt 0.916667 0.833333
vt 0.916667 0.750000
vt 1.000000 0.166667
vt 0.916667 0.166667
vt 1.000000 0.416667
vt 0.916667 0.416667
vt 1.000000 0.666667
vt 0.916667 0.666667
vt 1.000000 0.083333
vt 0.916667 0.083333
vt 1.000000 0.916667
vt 0.958333 1.000000
vt 0.916667 0.916667
vt 0.958333 0.000000
vt 0.875000 1.000000
vt 0.833333 0.916667
vt 0.833333 0.416667
vt 0.833333 0.333333
vt 0.833333 0.666667
vt 0.833333 0.583333
vt 0.875000 0.000000
vt 0.833333 0.083333
vt 0.833333 0.833333
vt 0.833333 0.250000
vt 0.833333 0.500000
vt 0.833333 0.750000
vt 0.833333 0.166667
vt 0.791667 1.000000
vt 0.791667 0.000000
s 0
f 3/1/1 130/2/1 10/3/1 11/4/1
f 129/5/2 1/6/2 7/7/2 8/8/2
f 133/9/3 132/10/3 14/11/3 15/12/3
f 127/13/4 93/14/4 5/15/4
f 4/16/5 3/1/5 11/4/5 12/17/5
f 2/18/6 129/5/6 8/8/6 9/19/6
f 134/20/7 133/9/7 15/12/7
f 128/21/8 127/13/8 5/15/8 6/22/8
f 131/23/9 4/16/9 12/17/9 13/24/9
f 130/2/10 2/18/10 9/19/10 10/3/10
f 1/6/11 128/21/11 6/22/11 7/7/11
f 132/10/12 131/23/12 13/24/12 14/11/12
f 9/19/13 8/8/13 19/25/13 20/26/13
f 134/27/14 15/12/14 26/28/14
f 6/22/15 5/15/15 16/29/15 17/30/15
f 13/24/16 12/17/16 23/31/16 24/32/16
f 10/3/17 9/19/17 20/26/17 21/33/17
f 7/7/18 6/22/18 17/30/18 18/34/18
f 14/11/19 13/24/19 24/32/19 25/35/19
f 11/4/20 10/3/20 21/33/20 22/36/20
f 8/8/21 7/7/21 18/34/21 19/25/21
f 15/12/22 14/11/22 25/35/22 26/28/22
f 5/15/23 93/37/23 16/29/23
f 12/17/24 11/4/24 22/36/24 23/31/24
f 19/25/25 18/34/25 29/38/25 30/39/25
f 26/28/26 25/35/26 36/40/26 37/41/26
f 16/29/27 93/42/27 27/43/27
f 23/31/28 22/36/28 33/44/28 34/45/28
f 20/26/29 19/25/29 30/39/29 31/46/29
f 134/47/30 26/28/30 37/41/30
f 17/30/31 16/29/31 27/43/31 28/48/31
f 24/32/32 23/31/32 34/45/32 35/49/32
f 21/33/33 20/26/33 31/46/33 32/50/33
f 18/34/34 17/30/34 28/48/34 29/38/34
f 25/35/35 24/32/35 35/49/35 36/40/35
f 22/36/36 21/33/36 32/50/36 33/44/36
f 32/50/37 31/46/37 42/51/37 43/52/37
f 29/38/38 28/48/38 39/53/38 40/54/38
f 36/40/39 35/49/39 46/55/39 47/56/39
f 33/44/40 32/50/40 43/52/40 44/57/40
f 30/39/41 29/38/41 40/54/41 41/58/41
f 37/41/42 36/40/42 47/56/42 48/59/42
f 27/43/43 93/60/43 38/61/43
f 34/45/44 33/44/44 44/57/44 45/62/44
f 31/46/45 30/39/45 41/58/45 42/51/45
f 134/63/46 37/41/46 48/59/46
f 28/48/47 27/43/47 38/61/47 39/53/47
f 35/49/48 34/45/48 45/62/48 46/55/48
f 42/51/49 41/58/49 52/64/49 53/65/49
f 134/66/50 48/59/50 59/67/50
f 39/53/51 38/61/51 49/68/51 50/69/51
f 46/55/52 45/62/52 56/70/52 57/71/52
f 43/52/53 42/51/53 53/65/53 54/72/53
f 40/54/54 39/53/54 50/69/54 51/73/54
f 47/56/55 46/55/55 57/71/55 58/74/55
f 44/57/56 43/52/56 54/72/56 55/75/56
f 41/58/57 40/54/57 51/73/57 52/64/57
f 48/59/58 47/56/58 58/74/58 59/67/58
f 38/61/59 93/76/59 49/68/59
f 45/62/60 44/57/60 55/75/60 56/70/60
f 55/75/61 54/72/61 65/77/61 66/78/61
f 52/64/62 51/73/62 62/79/62 63/80/62
f 59/67/63 58/74/63 69/81/63 70/82/63
f 49/68/64 93/83/64 60/84/64
f 56/70/65 55/75/65 66/78/65 67/85/65
f 53/65/66 52/64/66 63/80/66 64/86/66
f 134/87/67 59/67/67 70/82/67
f 50/69/68 49/68/68 60/84/68 61/88/68
f 57/71/69 56/70/69 67/85/69 68/89/69
f 54/72/70 53/65/70 64/86/70 65/77/70
f 51/73/71 50/69/71 61/88/71 62/79/71
f 58/74/72 57/71/72 68/89/72 69/81/72
f 65/77/73 64/86/73 75/90/73 76/91/73
f 62/79/74 61/88/74 72/92/74 73/93/74
f 69/81/75 68/89/75 79/94/75 80/95/75
f 66/78/76 65/77/76 76/91/76 77/96/76
f 63/80/77 62/79/77 73/93/77 74/97/77
f 70/82/78 69/81/78 80/95/78 81/98/78
f 60/84/79 93/99/79 71/100/79
f 67/85/80 66/78/80 77/96/80 78/101/80
f 64/86/81 63/80/81 74/97/81 75/90/81
f 134/102/82 70/82/82 81/98/82
f 61/88/83 60/84/83 71/100/83 72/92/83
f 68/89/84 67/85/84 78/101/84 79/94/84
f 78/101/85 77/96/85 88/103/85 89/104/85
f 75/90/86 74/97/86 85/105/86 86/106/86
f 134/107/87 81/98/87 92/108/87
f 72/92/88 71/100/88 82/109/88 83/110/88
f 79/94/89 78/101/89 89/104/89 90/111/89
f 76/91/90 75/90/90 86/106/90 87/112/90
f 73/93/91 72/92/91 83/110/91 84/113/91
f 80/95/92 79/94/92 90/111/92 91/114/92
f 77/96/93 76/91/93 87/112/93 88/103/93
f 74/97/94 73/93/94 84/113/94 85/105/94
f 81/98/95 80/95/95 91/114/95 92/108/95
f 71/100/96 93/115/96 82/109/96
f 88/103/97 87/112/97 99/116/97 100/117/97
f 85/105/98 84/113/98 96/118/98 97/119/98
f 92/108/99 91/114/99 103/120/99 104/121/99
f 82/109/100 93/122/100 94/123/100
f 89/104/101 88/103/101 100/117/101 101/124/101
f 86/106/102 85/105/102 97/119/102 98/125/102
f 134/126/103 92/108/103 104/121/103
f 83/110/104 82/109/104 94/123/104 95/127/104
f 90/111/105 89/104/105 101/124/105 102/128/105
f 87/112/106 86/106/106 98/125/106 99/116/106
f 84/113/107 83/110/107 95/127/107 96/118/107
f 91/114/108 90/111/108 102/128/108 103/120/108
f 102/129/109 101/130/109 112/131/109 113/132/109
f 99/133/110 98/134/110 109/135/110 110/136/110
f 96/137/111 95/138/111 106/139/111 107/140/111
f 103/141/112 102/129/112 113/132/112 114/142/112
f 100/143/113 99/133/113 110/136/113 111/144/113
f 97/145/114 96/137/114 107/140/114 108/146/114
f 104/147/115 103/141/115 114/142/115 115/148/115
f 94/149/116 93/150/116 105/151/116
f 101/130/117 100/143/117 111/144/117 112/131/117
f 98/134/118 97/145/118 108/146/118 109/135/118
f 134/152/119 104/147/119 115/148/119
f 95/138/120 94/149/120 105/151/120 106/139/120
f 105/151/121 93/153/121 116/154/121
f 112/131/122 111/144/122 122/155/122 123/156/122
f 109/135/123 108/146/123 119/157/123 120/158/123
f 134/159/124 115/148/124 126/160/124
f 106/139/125 105/151/125 116/154/125 117/161/125
f 113/132/126 112/131/126 123/156/126 124/162/126
f 110/136/127 109/135/127 120/158/127 121/163/127
f 107/140/128 106/139/128 117/161/128 118/164/128
f 114/142/129 113/132/129 124/162/129 125/165/129
f 111/144/130 110/136/130 121/163/130 122/155/130
f 108/146/131 107/140/131 118/164/131 119/157/131
f 115/148/132 114/142/132 125/165/132 126/160/132
f 125/165/133 124/162/133 131/23/133 132/10/133
f 122/155/134 121/163/134 130/2/134 3/1/134
f 119/157/135 118/164/135 1/6/135 129/5/135
f 126/160/136 125/165/136 132/10/136 133/9/136
f 116/154/137 93/166/137 127/13/137
f 123/156/138 122/155/138 3/1/138 4/16/138
f 120/158/139 119/157/139 129/5/139 2/18/139
f 134/167/140 126/160/140 133/9/140
f 117/161/141 116/154/141 127/13/141 128/21/141
f 124/162/142 123/156/142 4/16/142 131/23/142
f 121/163/143 120/158/143 2/18/143 130/2/143
f 118/164/144 117/161/144 128/21/144 1/6/144
